<svg width="36" height="36" viewBox="0 0 36 36" fill="none" xmlns="http://www.w3.org/2000/svg">
<path d="M18.2031 0.703125C8.53579 0.703125 0.703125 8.53579 0.703125 18.2031C0.703125 27.8705 8.53579 35.7031 18.2031 35.7031C27.8705 35.7031 35.7031 27.8705 35.7031 18.2031C35.7031 8.53579 27.8705 0.703125 18.2031 0.703125ZM18.2031 7.47732C21.6326 7.47732 24.4128 10.2576 24.4128 13.687C24.4128 17.1164 21.6326 19.8967 18.2031 19.8967C14.7737 19.8967 11.9934 17.1164 11.9934 13.687C11.9934 10.2576 14.7737 7.47732 18.2031 7.47732ZM18.2031 31.7515C14.061 31.7515 10.3493 29.8745 7.86542 26.939C9.19204 24.441 11.7888 22.7193 14.816 22.7193C14.9854 22.7193 15.1547 22.7475 15.317 22.7969C16.2344 23.0932 17.1941 23.2838 18.2031 23.2838C19.2122 23.2838 20.1789 23.0932 21.0892 22.7969C21.2515 22.7475 21.4209 22.7193 21.5902 22.7193C24.6174 22.7193 27.2142 24.441 28.5408 26.939C26.057 29.8745 22.3453 31.7515 18.2031 31.7515Z" fill="#71717A"/>
</svg>
