<svg width="50" height="50" viewBox="0 0 50 50" fill="none" xmlns="http://www.w3.org/2000/svg">
<path d="M18.8337 38.2866C18.4185 37.5148 18.4367 36.5451 18.8826 35.7936L25.0259 25.4319L16.6462 17.4197C15.869 16.6776 15.6873 15.4194 16.2129 14.4403L22.2289 3.2585C19.896 1.23012 16.9802 0 13.7933 0C6.17539 0 0 6.8865 0 15.3851C0 16.5887 0.136982 17.7549 0.37181 18.879C2.28677 32.1531 15.5168 46.1553 24.9993 50C25.0342 49.986 25.072 49.9657 25.1069 49.9501L18.8337 38.2866Z" fill="#DD2E44"/>
<path d="M36.2066 0.00311279C32.3418 0.00311279 28.8711 1.79762 26.3705 4.65388L20.7206 15.1575L29.1618 23.2273C29.9642 23.9944 30.1277 25.3087 29.5448 26.2925L23.1094 37.1469L28.9256 47.9591C37.7847 42.4571 47.9648 30.3991 49.6253 18.8837C49.863 17.7596 49.9999 16.5934 49.9999 15.3898C49.9985 6.88961 43.8232 0.00311279 36.2066 0.00311279Z" fill="#DD2E44"/>
</svg>
