<svg width="16" height="16" viewBox="0 0 16 16" fill="none" xmlns="http://www.w3.org/2000/svg">
<path d="M6.86 2.57335L1.21333 12C1.09691 12.2016 1.03531 12.4302 1.03466 12.663C1.03401 12.8958 1.09433 13.1248 1.20962 13.327C1.32491 13.5293 1.49115 13.6978 1.6918 13.8159C1.89246 13.934 2.12053 13.9975 2.35333 14H13.6467C13.8795 13.9975 14.1075 13.934 14.3082 13.8159C14.5088 13.6978 14.6751 13.5293 14.7904 13.327C14.9057 13.1248 14.966 12.8958 14.9653 12.663C14.9647 12.4302 14.9031 12.2016 14.7867 12L9.14 2.57335C9.02115 2.37742 8.85381 2.21543 8.65413 2.103C8.45444 1.99058 8.22916 1.93152 8 1.93152C7.77084 1.93152 7.54555 1.99058 7.34587 2.103C7.14618 2.21543 6.97885 2.37742 6.86 2.57335V2.57335Z" stroke="#A1A1AA" stroke-width="2" stroke-linecap="round" stroke-linejoin="round"/>
<path d="M8 6V8.66667" stroke="#A1A1AA" stroke-width="2" stroke-linecap="round" stroke-linejoin="round"/>
<path d="M8 11.3333H8.00667" stroke="#A1A1AA" stroke-width="2" stroke-linecap="round" stroke-linejoin="round"/>
</svg>
