<svg width="64" height="64" viewBox="0 0 64 64" fill="none" xmlns="http://www.w3.org/2000/svg">
<path d="M8.65172 16.2056C10.3248 15.0362 12.8468 15.2605 14.349 16.501L12.6261 13.9968C11.2396 12.0193 11.7362 9.87996 13.7154 8.49168C15.6946 7.10873 21.3029 10.8268 21.3029 10.8268C19.904 8.82985 20.1656 6.29889 22.1626 4.89815C24.1596 3.50274 26.9148 3.98508 28.3138 5.98564L46.8599 32.1851L44.4962 55.1007L24.7701 47.9065L7.56423 22.3959C6.15281 20.3864 6.64049 17.6152 8.65172 16.2056Z" fill="#EF9645"/>
<path d="M4.79659 30.7808C4.79659 30.7808 2.78179 27.844 5.72033 25.831C8.65531 23.818 10.6683 26.753 10.6683 26.753L20.0143 40.3831C20.3365 39.8456 20.6889 39.3152 21.0823 38.7919L8.11067 19.8774C8.11067 19.8774 6.09766 16.9424 9.03442 14.9294C11.9694 12.9164 13.9824 15.8514 13.9824 15.8514L26.1833 33.6446C26.6372 33.2744 27.1017 32.9024 27.5805 32.5375L13.436 11.9072C13.436 11.9072 11.423 8.97225 14.3597 6.95924C17.2947 4.94622 19.3077 7.8812 19.3077 7.8812L33.4522 28.5079C33.972 28.1893 34.4863 27.9135 35.0025 27.6216L21.7817 8.34218C21.7817 8.34218 19.7687 5.4072 22.7037 3.39419C25.6387 1.38117 27.6517 4.31615 27.6517 4.31615L41.6307 24.7026L43.7558 27.8031C34.9491 33.8439 34.1108 45.2083 39.1424 52.5466C40.1481 54.015 41.6164 53.0094 41.6164 53.0094C35.5774 44.2009 37.4213 34.3031 46.2298 28.2641L43.633 15.2676C43.633 15.2676 42.663 11.8432 46.0856 10.8714C49.5101 9.90134 50.4819 13.3258 50.4819 13.3258L53.4809 22.2322C54.6699 25.7634 55.9354 29.2822 57.6102 32.6105C62.3393 42.0081 59.5146 53.6875 50.5976 59.8049C40.8707 66.474 27.5734 63.9947 20.9025 54.2695L4.79659 30.7808Z" fill="#FFDC5D"/>
<path d="M21.3582 56.9554C14.2387 56.9554 7.04457 49.7612 7.04457 42.6418C7.04457 41.6575 6.32373 40.8619 5.33947 40.8619C4.35521 40.8619 3.48486 41.6575 3.48486 42.6418C3.48486 53.3209 10.679 60.5151 21.3582 60.5151C22.3424 60.5151 23.138 59.6447 23.138 58.6604C23.138 57.6762 22.3424 56.9554 21.3582 56.9554Z" fill="#5DADEC"/>
<path d="M12.459 60.4403C7.11942 60.4403 3.55971 56.8806 3.55971 51.541C3.55971 50.5568 2.76411 49.7612 1.77985 49.7612C0.795595 49.7612 0 50.5568 0 51.541C0 58.6604 5.33956 64 12.459 64C13.4432 64 14.2388 63.2044 14.2388 62.2201C14.2388 61.2359 13.4432 60.4403 12.459 60.4403ZM42.7165 3.48495C41.734 3.48495 40.9366 4.28233 40.9366 5.26481C40.9366 6.24729 41.734 7.04466 42.7165 7.04466C49.8359 7.04466 56.9553 13.4326 56.9553 21.2835C56.9553 22.266 57.7527 23.0634 58.7352 23.0634C59.7177 23.0634 60.515 22.266 60.515 21.2835C60.515 11.4694 53.3956 3.48495 42.7165 3.48495Z" fill="#5DADEC"/>
<path d="M51.6158 0C50.6333 0 49.8359 0.722621 49.8359 1.7051C49.8359 2.68758 50.6333 3.55971 51.6158 3.55971C56.9554 3.55971 60.4403 7.51988 60.4403 12.3842C60.4403 13.3667 61.3107 14.1641 62.2949 14.1641C63.2792 14.1641 64 13.3667 64 12.3842C64 5.55493 58.7352 0 51.6158 0Z" fill="#5DADEC"/>
</svg>
