<svg width="20" height="20" viewBox="0 0 20 20" fill="none" xmlns="http://www.w3.org/2000/svg">
<g clip-path="url(#clip0_195_96)">
<path d="M9.73507 6.25904L3.33333 11.5316V17.2222C3.33333 17.3696 3.39187 17.5109 3.49605 17.6151C3.60024 17.7193 3.74155 17.7778 3.88889 17.7778L7.77986 17.7677C7.92672 17.767 8.06732 17.7081 8.1709 17.604C8.27449 17.4999 8.33264 17.359 8.33264 17.2122V13.8889C8.33264 13.7416 8.39117 13.6002 8.49536 13.4961C8.59955 13.3919 8.74085 13.3333 8.8882 13.3333H11.1104C11.2578 13.3333 11.3991 13.3919 11.5033 13.4961C11.6074 13.6002 11.666 13.7416 11.666 13.8889V17.2097C11.6657 17.2828 11.6799 17.3553 11.7078 17.4229C11.7356 17.4905 11.7765 17.5519 11.8281 17.6037C11.8797 17.6555 11.941 17.6965 12.0085 17.7246C12.076 17.7526 12.1484 17.767 12.2215 17.767L16.1111 17.7778C16.2585 17.7778 16.3998 17.7193 16.5039 17.6151C16.6081 17.5109 16.6667 17.3696 16.6667 17.2222V11.5278L10.2663 6.25904C10.1911 6.19839 10.0973 6.16531 10.0007 6.16531C9.90405 6.16531 9.81032 6.19839 9.73507 6.25904ZM19.8472 9.84272L16.9444 7.45001V2.64064C16.9444 2.53013 16.9005 2.42415 16.8224 2.34601C16.7443 2.26787 16.6383 2.22397 16.5278 2.22397H14.5833C14.4728 2.22397 14.3668 2.26787 14.2887 2.34601C14.2106 2.42415 14.1667 2.53013 14.1667 2.64064V5.16182L11.058 2.60418C10.7597 2.35868 10.3853 2.22446 9.99896 2.22446C9.61261 2.22446 9.23826 2.35868 8.93993 2.60418L0.150696 9.84272C0.108504 9.87759 0.0735971 9.92043 0.0479694 9.9688C0.0223416 10.0172 0.00649535 10.0701 0.00133612 10.1246C-0.00382312 10.1791 0.00180574 10.2341 0.0179011 10.2864C0.0339964 10.3387 0.0602428 10.3874 0.0951405 10.4295L0.980557 11.5059C1.01536 11.5482 1.05817 11.5833 1.10653 11.609C1.15489 11.6348 1.20786 11.6507 1.26239 11.656C1.31693 11.6613 1.37197 11.6557 1.42436 11.6397C1.47675 11.6236 1.52546 11.5974 1.56771 11.5625L9.73507 4.83543C9.81032 4.77478 9.90405 4.7417 10.0007 4.7417C10.0973 4.7417 10.1911 4.77478 10.2663 4.83543L18.434 11.5625C18.4762 11.5974 18.5248 11.6237 18.5772 11.6397C18.6295 11.6558 18.6844 11.6615 18.7389 11.6563C18.7934 11.6512 18.8464 11.6353 18.8948 11.6097C18.9431 11.5841 18.986 11.5491 19.0208 11.507L19.9062 10.4306C19.9411 10.3882 19.9672 10.3393 19.9832 10.2867C19.9991 10.2342 20.0044 10.179 19.9989 10.1244C19.9935 10.0697 19.9772 10.0167 19.9512 9.9684C19.9252 9.92007 19.8898 9.87735 19.8472 9.84272Z" fill="#71717A"/>
</g>
<defs>
<clipPath id="clip0_195_96">
<rect width="20" height="20" fill="white"/>
</clipPath>
</defs>
</svg>
