<svg width="14" height="14" viewBox="0 0 14 14" fill="none" xmlns="http://www.w3.org/2000/svg">
<path d="M5.24999 12.25C5.24999 12.5708 5.51249 12.8333 5.83332 12.8333H8.16666C8.48749 12.8333 8.74999 12.5708 8.74999 12.25V11.6667H5.24999V12.25ZM6.99999 1.16667C4.74832 1.16667 2.91666 2.99834 2.91666 5.25001C2.91666 6.63834 3.61082 7.85751 4.66666 8.59834V9.91667C4.66666 10.2375 4.92916 10.5 5.24999 10.5H8.74999C9.07082 10.5 9.33332 10.2375 9.33332 9.91667V8.59834C10.3892 7.85751 11.0833 6.63834 11.0833 5.25001C11.0833 2.99834 9.25166 1.16667 6.99999 1.16667ZM8.16666 7.99167V9.33334H5.83332V7.99167C4.94666 7.36751 4.08332 6.72584 4.08332 5.25001C4.08332 3.64001 5.38999 2.33334 6.99999 2.33334C8.60999 2.33334 9.91666 3.64001 9.91666 5.25001C9.91666 6.70251 9.03582 7.37917 8.16666 7.99167Z" fill="#3F3F46"/>
</svg>
