<svg width="50" height="50" viewBox="0 0 50 50" fill="none" xmlns="http://www.w3.org/2000/svg">
<path d="M25 39.5833C25 31.5208 31.5208 25 39.5833 25C41.8333 25 43.9375 25.5208 45.8333 26.4167V12.5C45.8333 10.2083 43.9583 8.33333 41.6666 8.33333H8.33329C6.04163 8.33333 4.16663 10.2083 4.16663 12.5V37.5C4.16663 39.7917 6.04163 41.6667 8.33329 41.6667H25.1666C25.0625 40.9792 25 40.2917 25 39.5833ZM8.33329 12.5L25 22.9167L41.6666 12.5V16.6667L25 27.0833L8.33329 16.6667V12.5ZM36.125 45.8333L28.75 38.4583L31.6875 35.5208L36.1041 39.9375L44.9375 31.1042L47.9166 34.0417L36.125 45.8333Z" fill="#22C55E"/>
</svg>
