<svg width="14" height="14" viewBox="0 0 14 14" fill="none" xmlns="http://www.w3.org/2000/svg">
<path d="M12.25 7.46083C12.1582 8.45379 11.7856 9.40007 11.1756 10.189C10.5657 10.9778 9.74371 11.5767 8.80583 11.9155C7.86795 12.2542 6.85299 12.3189 5.87971 12.1019C4.90643 11.8849 4.01508 11.3952 3.30997 10.69C2.60485 9.98492 2.11513 9.09357 1.89812 8.12029C1.6811 7.14701 1.74575 6.13205 2.08452 5.19417C2.42329 4.2563 3.02215 3.4343 3.81104 2.82436C4.59993 2.21441 5.54622 1.84176 6.53917 1.75C5.95783 2.53649 5.67808 3.50551 5.75081 4.48082C5.82355 5.45614 6.24392 6.37295 6.93549 7.06452C7.62705 7.75608 8.54387 8.17646 9.51918 8.24919C10.4945 8.32192 11.4635 8.04218 12.25 7.46083V7.46083Z" stroke="#27272A" stroke-width="2" stroke-linecap="round" stroke-linejoin="round"/>
</svg>
