<svg width="60" height="60" viewBox="0 0 60 60" fill="none" xmlns="http://www.w3.org/2000/svg">
<path d="M60 30C60 46.5683 46.5683 60 30 60C13.4333 60 0 46.5683 0 30C0 13.4333 13.4333 0 30 0C46.5683 0 60 13.4333 60 30Z" fill="#D4D4D8"/>
<path d="M19.1667 30C21.4679 30 23.3333 27.3883 23.3333 24.1667C23.3333 20.945 21.4679 18.3333 19.1667 18.3333C16.8655 18.3333 15 20.945 15 24.1667C15 27.3883 16.8655 30 19.1667 30Z" fill="#3F3F46"/>
<path d="M40.8333 30C43.1345 30 45 27.3883 45 24.1667C45 20.945 43.1345 18.3333 40.8333 18.3333C38.5322 18.3333 36.6667 20.945 36.6667 24.1667C36.6667 27.3883 38.5322 30 40.8333 30Z" fill="#3F3F46"/>
<path d="M14.4417 46.4517C14.7383 46.72 15.1817 46.7367 15.5 46.5C15.565 46.4517 22.0367 41.6667 30 41.6667C37.9433 41.6667 44.4367 46.4517 44.5 46.5C44.8183 46.7367 45.2617 46.7167 45.5583 46.4517C45.8533 46.185 45.92 45.745 45.715 45.405C45.5 45.0483 40.3533 36.6667 30 36.6667C19.6467 36.6667 14.4983 45.0467 14.285 45.405C14.08 45.7467 14.145 46.185 14.4417 46.4517V46.4517Z" fill="#3F3F46"/>
</svg>
