<svg width="35" height="35" viewBox="0 0 35 35" fill="none" xmlns="http://www.w3.org/2000/svg">
<g clip-path="url(#clip0_231_53)">
<path d="M13.9658 0.341812C7.17092 1.66798 1.69533 7.1299 0.355489 13.9043C-2.17381 26.6875 9.35842 36.2168 18.0469 34.8701C20.8633 34.4326 22.2442 31.1377 20.9522 28.6016C19.3731 25.4981 21.6289 21.875 25.1153 21.875H30.5635C33.0108 21.875 34.9932 19.8516 35 17.4111C34.9658 6.63771 25.1631 -1.83885 13.9658 0.341812ZM6.56252 21.875C5.35256 21.875 4.37502 20.8975 4.37502 19.6875C4.37502 18.4776 5.35256 17.5 6.56252 17.5C7.77248 17.5 8.75002 18.4776 8.75002 19.6875C8.75002 20.8975 7.77248 21.875 6.56252 21.875ZM8.75002 13.125C7.54006 13.125 6.56252 12.1475 6.56252 10.9375C6.56252 9.72755 7.54006 8.75001 8.75002 8.75001C9.95998 8.75001 10.9375 9.72755 10.9375 10.9375C10.9375 12.1475 9.95998 13.125 8.75002 13.125ZM17.5 8.75001C16.2901 8.75001 15.3125 7.77248 15.3125 6.56251C15.3125 5.35255 16.2901 4.37502 17.5 4.37502C18.71 4.37502 19.6875 5.35255 19.6875 6.56251C19.6875 7.77248 18.71 8.75001 17.5 8.75001ZM26.25 13.125C25.0401 13.125 24.0625 12.1475 24.0625 10.9375C24.0625 9.72755 25.0401 8.75001 26.25 8.75001C27.46 8.75001 28.4375 9.72755 28.4375 10.9375C28.4375 12.1475 27.46 13.125 26.25 13.125Z" fill="#71717A"/>
</g>
<defs>
<clipPath id="clip0_231_53">
<rect width="35" height="35" fill="white"/>
</clipPath>
</defs>
</svg>
