<svg width="42" height="42" viewBox="0 0 42 42" fill="none" xmlns="http://www.w3.org/2000/svg">
<path d="M14.7 21C19.3397 21 23.1 17.2397 23.1 12.6C23.1 7.96033 19.3397 4.20001 14.7 4.20001C10.0603 4.20001 6.3 7.96033 6.3 12.6C6.3 17.2397 10.0603 21 14.7 21ZM20.58 23.1H19.4841C18.0272 23.7694 16.4063 24.15 14.7 24.15C12.9938 24.15 11.3794 23.7694 9.91594 23.1H8.82C3.95063 23.1 0 27.0506 0 31.92V34.65C0 36.3891 1.41094 37.8 3.15 37.8H21.1903C21.0328 37.3538 20.9672 36.8813 21.0197 36.4022L21.4659 32.4056L21.5447 31.6772L22.0631 31.1588L27.1359 26.086C25.5281 24.2681 23.1984 23.1 20.58 23.1ZM23.5528 32.6353L23.1066 36.6385C23.0344 37.3078 23.5988 37.8722 24.2616 37.7935L28.2581 37.3472L37.3078 28.2975L32.6025 23.5922L23.5528 32.6353ZM41.5406 21.8466L39.0534 19.3594C38.4431 18.7491 37.4456 18.7491 36.8353 19.3594L34.3547 21.84L34.0856 22.1091L38.7975 26.8144L41.5406 24.0713C42.1509 23.4544 42.1509 22.4635 41.5406 21.8466Z" fill="#71717A"/>
</svg>
